<?xml version="1.0" encoding="UTF-8" standalone="no"?>
<!-- Created with Inkscape (http://www.inkscape.org/) -->

<svg
   xmlns:dc="http://purl.org/dc/elements/1.1/"
   xmlns:cc="http://creativecommons.org/ns#"
   xmlns:rdf="http://www.w3.org/1999/02/22-rdf-syntax-ns#"
   xmlns:svg="http://www.w3.org/2000/svg"
   xmlns="http://www.w3.org/2000/svg"
   xmlns:xlink="http://www.w3.org/1999/xlink"
   xmlns:sodipodi="http://sodipodi.sourceforge.net/DTD/sodipodi-0.dtd"
   xmlns:inkscape="http://www.inkscape.org/namespaces/inkscape"
   width="58"
   height="58"
   id="svg3140"
   sodipodi:version="0.32"
   inkscape:version="0.48.4 r9939"
   sodipodi:docname="freecad.svg"
   inkscape:output_extension="org.inkscape.output.svg.inkscape"
   version="1.1">
  <defs
     id="defs3142">
    <linearGradient
       id="linearGradient3864">
      <stop
         id="stop3866"
         offset="0"
         style="stop-color:#316cab;stop-opacity:1" />
      <stop
         id="stop3868"
         offset="1"
         style="stop-color:#002ca8;stop-opacity:1" />
    </linearGradient>
    <radialGradient
       inkscape:collect="always"
       xlink:href="#linearGradient3864"
       id="radialGradient3661"
       gradientUnits="userSpaceOnUse"
       gradientTransform="matrix(0.6186598,0.9666542,-1.0332462,0.6612786,-327.27568,-255.84136)"
       cx="282.64584"
       cy="29.149046"
       fx="282.64584"
       fy="29.149046"
       r="19.571428" />
    <linearGradient
       id="linearGradient3682">
      <stop
         style="stop-color:#ff390f;stop-opacity:1"
         offset="0"
         id="stop3684" />
      <stop
         style="stop-color:#ff1000;stop-opacity:1;"
         offset="1"
         id="stop3686" />
    </linearGradient>
    <radialGradient
       inkscape:collect="always"
       xlink:href="#linearGradient3682"
       id="radialGradient3817"
       gradientUnits="userSpaceOnUse"
       gradientTransform="matrix(1.1149219,0.2722306,-0.7507171,3.0745639,-471.08629,-148.32863)"
       cx="270.58316"
       cy="33.899986"
       fx="270.58316"
       fy="33.899986"
       r="19.571428" />
    <inkscape:perspective
       sodipodi:type="inkscape:persp3d"
       inkscape:vp_x="0 : 32 : 1"
       inkscape:vp_y="0 : 1000 : 0"
       inkscape:vp_z="64 : 32 : 1"
       inkscape:persp3d-origin="32 : 21.333333 : 1"
       id="perspective3148" />
  </defs>
  <sodipodi:namedview
     id="base"
     pagecolor="#ffffff"
     bordercolor="#666666"
     borderopacity="1.0"
     inkscape:pageopacity="0.0"
     inkscape:pageshadow="2"
     inkscape:zoom="5.5"
     inkscape:cx="-41.26776"
     inkscape:cy="50.386132"
     inkscape:current-layer="g3813"
     showgrid="true"
     inkscape:document-units="px"
     inkscape:grid-bbox="true"
     inkscape:window-width="1920"
     inkscape:window-height="1029"
     inkscape:window-x="0"
     inkscape:window-y="25"
     inkscape:window-maximized="1"
     fit-margin-top="1"
     fit-margin-left="1"
     fit-margin-right="1"
     fit-margin-bottom="1" />
  <metadata
     id="metadata3145">
    <rdf:RDF>
      <cc:Work
         rdf:about="">
        <dc:format>image/svg+xml</dc:format>
        <dc:type
           rdf:resource="http://purl.org/dc/dcmitype/StillImage" />
        <dc:title />
      </cc:Work>
    </rdf:RDF>
  </metadata>
  <g
     id="layer1"
     inkscape:label="Layer 1"
     inkscape:groupmode="layer"
     transform="translate(-2.9724314,-0.64756116)">
    <g
       id="g3813"
       transform="matrix(0.8506406,0,0,0.8506406,187.82699,-0.1960013)">
      <path
         sodipodi:nodetypes="ccccccccccc"
         id="rect3663"
         d="m -216.13659,7.270763 0,55.5 12.375,0 0,-21.71875 8.75,0 0,-8.5625 -8.75,0 0,-9.241879 21.55514,0 0,-15.945621 -33.93014,-0.03125 z"
         style="fill:url(#radialGradient3817);fill-opacity:1;fill-rule:evenodd;stroke:#370700;stroke-width:0;stroke-linecap:butt;stroke-linejoin:miter;stroke-miterlimit:4;stroke-opacity:1;stroke-dasharray:none;stroke-dashoffset:0;marker:none;visibility:visible;display:inline;overflow:visible;enable-background:accumulate"
         inkscape:connector-curvature="0" />
      <path
         id="path3659"
         d="m -161.05088,23.811562 -7.19826,4.129889 -3.17869,-1.103092 -3.03274,-7.750723 -4.77066,0.250699 -2.17602,8.014733 -3.04547,1.45841 -7.59591,-3.322815 -3.20831,3.565187 4.1299,7.198257 -1.12858,3.169376 -7.75073,3.032741 0.27618,4.779962 8.01474,2.176021 1.45841,3.045461 -3.34829,7.586615 3.56518,3.208306 7.19825,-4.129891 3.19487,1.137883 3.00726,7.741419 4.80544,-0.266883 2.15054,-8.024034 3.04547,-1.458412 7.61208,3.357607 3.20831,-3.565187 -4.12989,-7.198256 1.11239,-3.204168 7.74142,-3.00726 -0.24138,-4.796137 -8.02404,-2.150536 -1.45842,-3.045461 3.33212,-7.621406 -3.56517,-3.208305 z m -10.7808,11.804259 1.47765,0.857357 1.28022,1.160735 1.02494,1.385223 0.73729,1.540127 0.43349,1.660242 0.0718,1.701463 -0.24575,1.701021 -0.56084,1.61483 -0.89215,1.493834 -1.12594,1.264037 -1.38523,1.024933 -1.54013,0.737291 -1.66023,0.433483 -1.71077,0.09731 -1.70103,-0.245733 -1.61482,-0.560852 -1.49383,-0.892149 -1.25475,-1.151431 -1.03422,-1.359735 -0.73731,-1.540126 -0.42417,-1.685727 -0.0973,-1.710769 0.24573,-1.701025 0.56086,-1.614826 0.88284,-1.468351 1.13526,-1.28952 1.38522,-1.024934 1.54012,-0.737294 1.68572,-0.424174 1.70147,-0.07182 1.70102,0.245731 1.61483,0.560854 z"
         style="fill:url(#radialGradient3661);fill-opacity:1;fill-rule:evenodd;stroke:#000137;stroke-width:0;stroke-linecap:butt;stroke-linejoin:miter;stroke-miterlimit:4;stroke-opacity:1;stroke-dasharray:none;stroke-dashoffset:0;marker:none;visibility:visible;display:inline;overflow:visible;enable-background:accumulate"
         inkscape:connector-curvature="0" />
    </g>
  </g>
</svg>
